<?xml version="1.0" encoding="UTF-8"?>
<svg xmlns="http://www.w3.org/2000/svg" viewBox="0 0 780 414" width="780" height="414" role="img" aria-label="Twee diagrammen: links de meerkosten per jaar, oplopend tot 134.497 euro in 2036; rechts het cumulatieve bedrag, dat over elf jaar uitkomt op 650.732 euro."><rect x="0" y="0" width="780" height="414" fill="#ffffff"/><text x="24" y="30" font-family="'Segoe UI',Helvetica,Arial,sans-serif" font-size="15" font-weight="600" fill="#1a2332" text-anchor="start">Kosten van de WIS-compensatie</text><text x="24" y="50" font-family="'Segoe UI',Helvetica,Arial,sans-serif" font-size="11.5" font-weight="400" fill="#68778c" text-anchor="start">inzet van weginspecteurs ter compensatie van uitgevallen signaalgevers, in euro</text><text x="62" y="78" font-family="'Segoe UI',Helvetica,Arial,sans-serif" font-size="12" font-weight="600" fill="#1a2332" text-anchor="start">per jaar</text><line x1="62" y1="336" x2="376" y2="336" stroke="#e4e9f0" stroke-width="1"/><text x="54" y="340" font-family="'DejaVu Sans Mono',Consolas,monospace" font-size="10" font-weight="400" fill="#68778c" text-anchor="end">€0k</text><line x1="62" y1="253.38766581328127" x2="376" y2="253.38766581328127" stroke="#e4e9f0" stroke-width="1"/><text x="54" y="257.3876658132813" font-family="'DejaVu Sans Mono',Consolas,monospace" font-size="10" font-weight="400" fill="#68778c" text-anchor="end">€50k</text><line x1="62" y1="170.77533162656252" x2="376" y2="170.77533162656252" stroke="#e4e9f0" stroke-width="1"/><text x="54" y="174.77533162656252" font-family="'DejaVu Sans Mono',Consolas,monospace" font-size="10" font-weight="400" fill="#68778c" text-anchor="end">€100k</text><line x1="62" y1="336" x2="376" y2="336" stroke="#b7c2d2" stroke-width="1"/><text x="76.27272727272728" y="354" font-family="'DejaVu Sans Mono',Consolas,monospace" font-size="10" font-weight="400" fill="#68778c" text-anchor="middle">26</text><rect x="120.1" y="314.6" width="26.5" height="21.4" rx="3" fill="#3a72cc"/><text x="133.36363636363637" y="354" font-family="'DejaVu Sans Mono',Consolas,monospace" font-size="10" font-weight="400" fill="#68778c" text-anchor="middle">28</text><rect x="148.6" y="292.9" width="26.5" height="43.1" rx="3" fill="#3a72cc"/><rect x="177.2" y="271.3" width="26.5" height="64.7" rx="3" fill="#3a72cc"/><text x="190.45454545454547" y="354" font-family="'DejaVu Sans Mono',Consolas,monospace" font-size="10" font-weight="400" fill="#68778c" text-anchor="middle">30</text><rect x="205.7" y="249.7" width="26.5" height="86.3" rx="3" fill="#3a72cc"/><rect x="234.3" y="228.2" width="26.5" height="107.8" rx="3" fill="#3a72cc"/><text x="247.54545454545456" y="354" font-family="'DejaVu Sans Mono',Consolas,monospace" font-size="10" font-weight="400" fill="#68778c" text-anchor="middle">32</text><rect x="262.8" y="185.2" width="26.5" height="150.8" rx="3" fill="#3a72cc"/><rect x="291.4" y="158.0" width="26.5" height="178.0" rx="3" fill="#3a72cc"/><text x="304.6363636363636" y="354" font-family="'DejaVu Sans Mono',Consolas,monospace" font-size="10" font-weight="400" fill="#68778c" text-anchor="middle">34</text><rect x="319.9" y="135.3" width="26.5" height="200.7" rx="3" fill="#3a72cc"/><rect x="348.5" y="113.8" width="26.5" height="222.2" rx="3" fill="#3a72cc"/><text x="361.72727272727275" y="354" font-family="'DejaVu Sans Mono',Consolas,monospace" font-size="10" font-weight="400" fill="#68778c" text-anchor="middle">36</text><text x="62" y="374" font-family="'DejaVu Sans Mono',Consolas,monospace" font-size="10" font-weight="400" fill="#68778c" text-anchor="start">piek € 134.497 in 2036</text><text x="438" y="78" font-family="'Segoe UI',Helvetica,Arial,sans-serif" font-size="12" font-weight="600" fill="#1a2332" text-anchor="start">cumulatief</text><line x1="438" y1="336" x2="752" y2="336" stroke="#e4e9f0" stroke-width="1"/><text x="430" y="340" font-family="'DejaVu Sans Mono',Consolas,monospace" font-size="10" font-weight="400" fill="#68778c" text-anchor="end">€0k</text><line x1="438" y1="250.62605872224577" x2="752" y2="250.62605872224577" stroke="#e4e9f0" stroke-width="1"/><text x="430" y="254.62605872224577" font-family="'DejaVu Sans Mono',Consolas,monospace" font-size="10" font-weight="400" fill="#68778c" text-anchor="end">€250k</text><line x1="438" y1="165.25211744449157" x2="752" y2="165.25211744449157" stroke="#e4e9f0" stroke-width="1"/><text x="430" y="169.25211744449157" font-family="'DejaVu Sans Mono',Consolas,monospace" font-size="10" font-weight="400" fill="#68778c" text-anchor="end">€500k</text><line x1="438" y1="336" x2="752" y2="336" stroke="#b7c2d2" stroke-width="1"/><path d="M438.0 336.0 L469.4 336.0 L500.8 331.6 L532.2 322.6 L563.6 309.3 L595.0 291.4 L626.4 269.1 L657.8 238.0 L689.2 201.2 L720.6 159.7 L752.0 113.8 L752.0 336 L438 336 Z" fill="#3a72cc" fill-opacity="0.12"/><path d="M438.0 336.0 L469.4 336.0 L500.8 331.6 L532.2 322.6 L563.6 309.3 L595.0 291.4 L626.4 269.1 L657.8 238.0 L689.2 201.2 L720.6 159.7 L752.0 113.8" fill="none" stroke="#3a72cc" stroke-width="2" stroke-linejoin="round"/><circle cx="438" cy="336" r="4" fill="#3a72cc" stroke="#ffffff" stroke-width="2"/><text x="438" y="354" font-family="'DejaVu Sans Mono',Consolas,monospace" font-size="10" font-weight="400" fill="#68778c" text-anchor="middle">26</text><circle cx="469.4" cy="336" r="4" fill="#3a72cc" stroke="#ffffff" stroke-width="2"/><circle cx="500.8" cy="331.567384968859" r="4" fill="#3a72cc" stroke="#ffffff" stroke-width="2"/><text x="500.8" y="354" font-family="'DejaVu Sans Mono',Consolas,monospace" font-size="10" font-weight="400" fill="#68778c" text-anchor="middle">28</text><circle cx="532.2" cy="322.6495645587499" r="4" fill="#3a72cc" stroke="#ffffff" stroke-width="2"/><circle cx="563.6" cy="309.26976048170025" r="4" fill="#3a72cc" stroke="#ffffff" stroke-width="2"/><text x="563.6" y="354" font-family="'DejaVu Sans Mono',Consolas,monospace" font-size="10" font-weight="400" fill="#68778c" text-anchor="middle">30</text><circle cx="595" cy="291.427631241945" r="4" fill="#3a72cc" stroke="#ffffff" stroke-width="2"/><circle cx="626.4" cy="269.14913051763244" r="4" fill="#3a72cc" stroke="#ffffff" stroke-width="2"/><text x="626.4" y="354" font-family="'DejaVu Sans Mono',Consolas,monospace" font-size="10" font-weight="400" fill="#68778c" text-anchor="middle">32</text><circle cx="657.8" cy="237.97398212064775" r="4" fill="#3a72cc" stroke="#ffffff" stroke-width="2"/><circle cx="689.2" cy="201.19352223513079" r="4" fill="#3a72cc" stroke="#ffffff" stroke-width="2"/><text x="689.2" y="354" font-family="'DejaVu Sans Mono',Consolas,monospace" font-size="10" font-weight="400" fill="#68778c" text-anchor="middle">34</text><circle cx="720.6" cy="159.70793369791423" r="4" fill="#3a72cc" stroke="#ffffff" stroke-width="2"/><circle cx="752" cy="113.7777777777778" r="4" fill="#3a72cc" stroke="#ffffff" stroke-width="2"/><text x="752" y="354" font-family="'DejaVu Sans Mono',Consolas,monospace" font-size="10" font-weight="400" fill="#68778c" text-anchor="middle">36</text><text x="752" y="78" font-family="'Segoe UI',Helvetica,Arial,sans-serif" font-size="12" font-weight="600" fill="#1a2332" text-anchor="end">€ 650.732 totaal</text><text x="438" y="374" font-family="'DejaVu Sans Mono',Consolas,monospace" font-size="10" font-weight="400" fill="#68778c" text-anchor="start">6,85 FTE-jaren à € 95.000</text><text x="24" y="400" font-family="'DejaVu Sans Mono',Consolas,monospace" font-size="10" font-weight="400" fill="#68778c" text-anchor="start">Meerkosten ten opzichte van 2026; de basisformatie van 300 WIS-FTE zit er niet in.</text></svg>
